<svg width="26" height="26" viewBox="0 0 26 26" fill="none" xmlns="http://www.w3.org/2000/svg">
<g clip-path="url(#clip0)">
<path d="M22.3825 20.991C11.8578 25.9999 5.32597 21.8091 1.14477 19.2637C0.886044 19.1033 0.446291 19.3012 0.827837 19.7395C2.2208 21.4285 6.78585 25.4994 12.7446 25.4994C18.7074 25.4994 22.2547 22.2459 22.6984 21.6783C23.1392 21.1155 22.8279 20.8051 22.3824 20.991H22.3825ZM25.3384 19.3586C25.0557 18.9906 23.6198 18.922 22.716 19.033C21.8109 19.1408 20.4524 19.694 20.5705 20.0261C20.6311 20.1505 20.7548 20.0947 21.3766 20.0388C22.0001 19.9766 23.7467 19.7562 24.1106 20.2319C24.4763 20.711 23.5535 22.9931 23.385 23.3611C23.2222 23.7291 23.4472 23.824 23.7531 23.5789C24.0547 23.3339 24.6008 22.6993 24.9672 21.8013C25.3312 20.8984 25.5531 19.6389 25.3383 19.3586H25.3384Z" fill="#FF9900"/>
<path fill-rule="evenodd" clip-rule="evenodd" d="M15.3064 10.7705C15.3064 12.0847 15.3396 13.1808 14.6753 14.3479C14.1391 15.2969 13.2898 15.8805 12.3409 15.8805C11.0456 15.8805 10.2912 14.8936 10.2912 13.437C10.2912 10.5617 12.8675 10.0398 15.3064 10.0398V10.7705ZM18.7083 18.9931C18.4853 19.1923 18.1626 19.2066 17.9112 19.0737C16.7915 18.1438 16.5921 17.712 15.9754 16.8247C14.1249 18.7131 12.8154 19.2777 10.4146 19.2777C7.57724 19.2777 5.36617 17.5269 5.36617 14.0206C5.36617 11.2829 6.85135 9.41822 8.96261 8.50731C10.7941 7.70062 13.3515 7.5583 15.3064 7.33537V6.89882C15.3064 6.09693 15.368 5.14801 14.8983 4.45533C14.4855 3.83376 13.6979 3.57753 13.0051 3.57753C11.7193 3.57753 10.5711 4.23701 10.2912 5.60347C10.2342 5.9072 10.0112 6.20614 9.7076 6.22034L6.4337 5.8693C6.15857 5.80749 5.85493 5.58457 5.93084 5.16222C6.68523 1.19574 10.2674 0 13.4748 0C15.1165 0 17.261 0.436552 18.5564 1.6797C20.1981 3.21218 20.0414 5.25713 20.0414 7.48239V12.7395C20.0414 14.3195 20.6962 15.0122 21.313 15.8663C21.5312 16.1699 21.5787 16.5354 21.3035 16.763C20.6155 17.3371 19.3914 18.4047 18.7177 19.0026L18.7082 18.9931" fill="black"/>
<path d="M22.3825 20.991C11.8578 25.9999 5.32597 21.8091 1.14477 19.2637C0.886044 19.1033 0.446291 19.3012 0.827837 19.7395C2.2208 21.4285 6.78585 25.4994 12.7446 25.4994C18.7074 25.4994 22.2547 22.2459 22.6984 21.6783C23.1392 21.1155 22.8279 20.8051 22.3824 20.991H22.3825ZM25.3384 19.3586C25.0557 18.9906 23.6198 18.922 22.716 19.033C21.8109 19.1408 20.4524 19.694 20.5705 20.0261C20.6311 20.1505 20.7548 20.0947 21.3766 20.0388C22.0001 19.9766 23.7467 19.7562 24.1106 20.2319C24.4763 20.711 23.5535 22.9931 23.385 23.3611C23.2222 23.7291 23.4472 23.824 23.7531 23.5789C24.0547 23.3339 24.6008 22.6993 24.9672 21.8013C25.3312 20.8984 25.5531 19.6389 25.3383 19.3586H25.3384Z" fill="#FF9900"/>
<path fill-rule="evenodd" clip-rule="evenodd" d="M15.3064 10.7705C15.3064 12.0847 15.3396 13.1808 14.6753 14.3479C14.1391 15.2969 13.2898 15.8805 12.3409 15.8805C11.0456 15.8805 10.2912 14.8936 10.2912 13.437C10.2912 10.5617 12.8675 10.0398 15.3064 10.0398V10.7705ZM18.7083 18.9931C18.4853 19.1923 18.1626 19.2066 17.9112 19.0737C16.7915 18.1438 16.5921 17.712 15.9754 16.8247C14.1249 18.7131 12.8154 19.2777 10.4146 19.2777C7.57724 19.2777 5.36617 17.5269 5.36617 14.0206C5.36617 11.2829 6.85135 9.41822 8.96261 8.50731C10.7941 7.70062 13.3515 7.5583 15.3064 7.33537V6.89882C15.3064 6.09693 15.368 5.14801 14.8983 4.45533C14.4855 3.83376 13.6979 3.57753 13.0051 3.57753C11.7193 3.57753 10.5711 4.23701 10.2912 5.60347C10.2342 5.9072 10.0112 6.20614 9.7076 6.22034L6.4337 5.8693C6.15857 5.80749 5.85493 5.58457 5.93084 5.16222C6.68523 1.19574 10.2674 0 13.4748 0C15.1165 0 17.261 0.436552 18.5564 1.6797C20.1981 3.21218 20.0414 5.25713 20.0414 7.48239V12.7395C20.0414 14.3195 20.6962 15.0122 21.313 15.8663C21.5312 16.1699 21.5787 16.5354 21.3035 16.763C20.6155 17.3371 19.3914 18.4047 18.7177 19.0026L18.7082 18.9931" fill="white"/>
</g>
<defs>
<clipPath id="clip0">
<rect width="26" height="26" fill="white"/>
</clipPath>
</defs>
</svg>
