<svg width="47" height="35" viewBox="0 0 47 35" fill="none" xmlns="http://www.w3.org/2000/svg">
<path d="M40.1236 16.1272C39.6192 16.1272 39.1853 15.753 39.1203 15.2431C37.6884 4.14651 35.2207 2.26453 35.1936 2.24826C33.9082 1.39676 31.2723 3.36009 30.1985 4.43396L29.7429 4.88412L29.1463 4.68344C23.701 2.81231 17.1548 4.6726 17.0897 4.69429L16.5148 4.86242L16.0918 4.43938C15.0125 3.36009 12.3766 1.4076 11.0966 2.23741L11.0316 2.2808C11.0424 2.2808 8.59096 4.18447 7.16998 15.2486C7.09947 15.8018 6.59508 16.1977 6.03645 16.1218C5.48325 16.0513 5.09275 15.5414 5.16326 14.9882C6.67643 3.21908 9.37195 0.919482 10.0119 0.534408C12.5502 -1.10894 15.8802 1.4998 17.0951 2.60079C18.8415 2.17233 24.2434 1.09304 29.2168 2.57367C30.4534 1.46184 33.7509 -1.10351 36.2675 0.528984C36.9074 0.919482 39.6138 3.21908 41.127 14.9828C41.2029 15.5414 40.807 16.0458 40.2538 16.1163C40.2104 16.1272 40.167 16.1272 40.1236 16.1272Z" fill="#2B3C67"/>
<path d="M11.319 4.79724C11.319 4.79724 9.42076 7.56326 10.3102 10.595C10.3102 10.595 12.7183 7.79648 15.9182 8.26291C15.9182 8.26291 15.2077 5.93077 11.319 4.79724Z" fill="#2B3C67"/>
<path d="M34.5915 4.79724C34.5915 4.79724 36.4843 7.56326 35.5948 10.595C35.5948 10.595 33.1868 7.79648 29.9814 8.26291C29.9814 8.26291 30.6919 5.93077 34.5915 4.79724Z" fill="#2B3C67"/>
<path d="M33.3387 18.2749C33.252 18.2749 25.6047 18.3563 23.1695 24.5012C20.7289 18.3617 13.0871 18.2749 13.0003 18.2749H1.91455V19.6254H13.0003C13.3474 19.6254 21.5425 19.7122 22.4753 27.2184H23.8638C24.7912 19.7338 32.9916 19.6254 33.3333 19.6254H44.3703V18.2749H33.3387Z" fill="#2B3C67"/>
<path d="M33.5936 25.5045C29.9327 25.5045 26.9335 28.3682 26.6948 31.9694H19.5954C19.3567 28.3682 16.3575 25.5045 12.6912 25.5045H0V28.878H12.6912C14.6491 28.878 16.2382 30.4725 16.2382 32.425V34.7517H30.0412V32.425C30.0412 30.4671 31.6357 28.878 33.5882 28.878H46.2848V25.5045H33.5936Z" fill="#2B3C67"/>
</svg>
