<svg width="34" height="34" viewBox="0 0 34 34" fill="none" xmlns="http://www.w3.org/2000/svg">
<path fill-rule="evenodd" clip-rule="evenodd" d="M17 33C25.8366 33 33 25.8366 33 17C33 8.16344 25.8366 1 17 1C8.16344 1 1 8.16344 1 17C1 25.8366 8.16344 33 17 33Z" fill="white" stroke="#D2E0ED"/>
<path fill-rule="evenodd" clip-rule="evenodd" d="M18.425 12.5917C18.1 12.2667 17.575 12.2667 17.25 12.5917L13.425 16.4166C13.1 16.7416 13.1 17.2666 13.425 17.5916L17.25 21.4166C17.575 21.7416 18.1 21.7416 18.425 21.4166C18.75 21.0916 18.75 20.5666 18.425 20.2416L15.1917 17L18.425 13.7667C18.75 13.4417 18.7417 12.9083 18.425 12.5917Z" fill="#D1DFED"/>
</svg>
