<svg width="28" height="38" viewBox="0 0 28 38" fill="none" xmlns="http://www.w3.org/2000/svg">
<path fill-rule="evenodd" clip-rule="evenodd" d="M13.9249 1C21.1387 1 27 6.85837 27 13.9185C27 20.2275 17.9827 30.4421 13.9249 36C10.0173 30.4421 1 20.2275 1 13.9185C1 6.85837 6.86127 1 13.9249 1ZM13.9249 7.30901C17.6821 7.30901 20.5376 10.3133 20.5376 13.9185C20.5376 17.6738 17.6821 20.5279 13.9249 20.5279C10.3179 20.5279 7.31214 17.6738 7.31214 13.9185C7.31214 10.3133 10.3179 7.30901 13.9249 7.30901Z" fill="white"/>
<path fill-rule="evenodd" clip-rule="evenodd" d="M15.4277 2C22.3642 2 27.5 6.93991 27.5 14C27.5 20.309 17.9017 31.4421 14 37C10.2428 31.4421 3 20.809 3 14.5C3 7.43991 8 2 15.4277 2ZM15.4277 8.30901C19.0405 8.30901 21.7861 11.3133 21.7861 14.9185C21.7861 18.6738 19.0405 21.5279 15.4277 21.5279C11.9595 21.5279 8 18.2554 8 14.5C8 10.8948 10.5 7.5 15.4277 8.30901Z" fill="#3790EC"/>
<path fill-rule="evenodd" clip-rule="evenodd" d="M13.9095 37.7169L13.1068 36.5751C12.3148 35.4486 11.309 34.127 10.1958 32.6641C9.95529 32.3481 9.70977 32.0255 9.46032 31.6968C8.06412 29.8573 6.55709 27.8445 5.16995 25.8029C3.78459 23.7638 2.50288 21.6728 1.56473 19.6735C0.633696 17.6894 0 15.7111 0 13.9185C0 6.30562 6.30945 0 13.9249 0C21.683 0 28 6.29812 28 13.9185C28 15.7113 27.3662 17.6897 26.4325 19.6744C25.4917 21.6742 24.2049 23.7656 22.8095 25.8055C21.0555 28.3695 19.0569 30.9501 17.3304 33.1794C16.3433 34.4539 15.4451 35.6136 14.7325 36.5897L13.9095 37.7169ZM13.3117 35.1455C12.6268 34.2072 11.8339 33.1653 10.987 32.0525C6.6884 26.404 1 18.9294 1 13.9185C1 6.85837 6.86127 1 13.9249 1C21.1387 1 27 6.85837 27 13.9185C27 19.0663 20.9965 26.8144 16.5822 32.5114C15.8502 33.4561 15.1619 34.3444 14.5519 35.1551C14.3322 35.4471 14.1226 35.7291 13.9249 36C13.7323 35.7261 13.5273 35.4409 13.3117 35.1455ZM19.5376 13.9185C19.5376 10.8512 17.1155 8.30901 13.9249 8.30901C10.8697 8.30901 8.31214 10.8661 8.31214 13.9185C8.31214 17.1063 10.8548 19.5279 13.9249 19.5279C17.1303 19.5279 19.5376 17.1211 19.5376 13.9185ZM20.5376 13.9185C20.5376 10.3133 17.6821 7.30901 13.9249 7.30901C10.3179 7.30901 7.31214 10.3133 7.31214 13.9185C7.31214 17.6738 10.3179 20.5279 13.9249 20.5279C17.6821 20.5279 20.5376 17.6738 20.5376 13.9185Z" fill="#2B3C67"/>
</svg>
