<svg width="249" height="33" viewBox="0 0 249 33" fill="none" xmlns="http://www.w3.org/2000/svg">
<path d="M37.9875 15.2687C37.51 15.2687 37.0992 14.9144 37.0376 14.4317C35.682 3.92578 33.3456 2.14398 33.3199 2.12858C32.103 1.3224 29.6074 3.18123 28.5907 4.19793L28.1594 4.62413L27.5946 4.43414C22.4391 2.66261 16.2414 4.42387 16.1797 4.44441L15.6354 4.60359L15.2349 4.20307C14.2131 3.18123 11.7175 1.33267 10.5057 2.11831L10.4441 2.15939C10.4544 2.15939 8.1334 3.96173 6.78806 14.4369C6.72131 14.9606 6.24376 15.3355 5.71487 15.2636C5.19112 15.1968 4.82141 14.7141 4.88816 14.1904C6.32079 3.04772 8.87282 0.870536 9.47873 0.50596C11.8819 -1.04991 15.0347 1.41997 16.1849 2.46235C17.8383 2.05669 22.9526 1.03485 27.6613 2.43667C28.8321 1.38402 31.9541 -1.04477 34.3366 0.500826C34.9426 0.870536 37.5049 3.04772 38.9375 14.1853C39.0094 14.7141 38.6345 15.1917 38.1108 15.2584C38.0697 15.2687 38.0286 15.2687 37.9875 15.2687Z" fill="white"/>
<path d="M10.7163 4.54187C10.7163 4.54187 8.9191 7.16065 9.76122 10.031C9.76122 10.031 12.0411 7.38145 15.0707 7.82305C15.0707 7.82305 14.398 5.61506 10.7163 4.54187Z" fill="white"/>
<path d="M32.7504 4.54187C32.7504 4.54187 34.5425 7.16065 33.7003 10.031C33.7003 10.031 31.4205 7.38145 28.3857 7.82305C28.3857 7.82305 29.0584 5.61506 32.7504 4.54187Z" fill="white"/>
<path d="M31.5639 17.3021C31.4818 17.3021 24.2416 17.3791 21.9361 23.197C19.6254 17.3843 12.3903 17.3021 12.3082 17.3021H1.8125V18.5807H12.3082C12.6368 18.5807 20.3956 18.6629 21.2788 25.7695H22.5933C23.4714 18.6834 31.2353 18.5807 31.5588 18.5807H42.0083V17.3021H31.5639Z" fill="white"/>
<path d="M31.8054 24.1469C28.3393 24.1469 25.4998 26.8581 25.2738 30.2676H18.5523C18.3264 26.8581 15.4868 24.1469 12.0156 24.1469H0V27.3407H12.0156C13.8693 27.3407 15.3738 28.8504 15.3738 30.6989V32.9018H28.442V30.6989C28.442 28.8453 29.9517 27.3407 31.8002 27.3407H43.821V24.1469H31.8054Z" fill="white"/>
<path d="M56.5913 24.568L58.5631 21.8003C59.7698 23.0583 61.6389 24.111 63.9958 24.111C65.9933 24.111 66.9689 23.1867 66.9689 22.2111C66.9689 19.1866 57.1253 21.2611 57.1253 14.8271C57.1253 11.9824 59.5901 9.62549 63.6107 9.62549C66.3322 9.62549 68.5864 10.4471 70.2757 12.0081L68.2526 14.6731C66.8713 13.3945 65.0228 12.804 63.282 12.804C61.7159 12.804 60.8481 13.4972 60.8481 14.519C60.8481 17.2354 70.666 15.4176 70.666 21.8003C70.666 24.9274 68.4375 27.2843 63.8212 27.2843C60.54 27.2843 58.178 26.1854 56.5913 24.568Z" fill="white"/>
<path d="M88.3965 26.9762V19.1609C88.3965 18.0056 87.883 17.184 86.553 17.184C85.3977 17.184 84.4529 17.9543 83.9908 18.6218V26.9762H80.7096V19.1609C80.7096 18.0056 80.1961 17.184 78.8661 17.184C77.7365 17.184 76.7917 17.9543 76.3039 18.6475V26.9762H73.0483V14.596H76.3039V16.2135C76.8122 15.469 78.4554 14.2931 80.3553 14.2931C82.173 14.2931 83.3283 15.1403 83.7905 16.5473C84.5094 15.4176 86.1474 14.2931 88.0473 14.2931C90.3272 14.2931 91.6879 15.4947 91.6879 18.0364V26.9814H88.3965V26.9762Z" fill="white"/>
<path d="M102.312 26.9762V25.6925C101.465 26.6938 100.007 27.2792 98.3892 27.2792C96.4123 27.2792 94.0811 25.9493 94.0811 23.1764C94.0811 20.2804 96.4123 19.1815 98.3892 19.1815C100.027 19.1815 101.491 19.7207 102.312 20.6912V19.0275C102.312 17.7694 101.234 16.953 99.5959 16.953C98.2608 16.953 97.0285 17.4408 95.981 18.4113L94.7486 16.2341C96.2634 14.899 98.2095 14.2828 100.156 14.2828C102.975 14.2828 105.563 15.4125 105.563 18.971V26.9711H102.312V26.9762ZM102.312 24.0031V22.4627C101.773 21.7438 100.746 21.3844 99.6986 21.3844C98.4149 21.3844 97.3674 22.0519 97.3674 23.2586C97.3674 24.4139 98.4149 25.0763 99.6986 25.0763C100.746 25.0815 101.773 24.722 102.312 24.0031Z" fill="white"/>
<path d="M108.792 26.9762V14.5961H112.048V16.2906C112.921 15.1866 114.456 14.288 115.997 14.288V17.4664C115.766 17.4151 115.458 17.3894 115.098 17.3894C114.02 17.3894 112.587 18.0056 112.048 18.7964V26.9762H108.792Z" fill="white"/>
<path d="M118.656 23.9004V17.4408H116.607V14.596H118.656V11.2122H121.937V14.596H124.448V17.4408H121.937V23.0275C121.937 23.7977 122.348 24.3882 123.062 24.3882C123.55 24.3882 124.012 24.2085 124.192 24.0288L124.88 26.4884C124.392 26.9249 123.524 27.2843 122.163 27.2843C119.889 27.2843 118.656 26.1084 118.656 23.9004Z" fill="white"/>
<path d="M125.933 18.442C125.933 13.1839 129.907 9.59973 135.032 9.59973C138.801 9.59973 140.978 11.6485 142.184 13.7795L139.057 15.3148C138.338 13.9336 136.803 12.8296 135.032 12.8296C131.93 12.8296 129.676 15.2121 129.676 18.442C129.676 21.6718 131.93 24.0544 135.032 24.0544C136.798 24.0544 138.338 22.9761 139.057 21.5691L142.184 23.0839C140.952 25.2097 138.801 27.2894 135.032 27.2894C129.907 27.2842 125.933 23.6949 125.933 18.442Z" fill="white"/>
<path d="M143.489 20.7733C143.489 17.2611 145.948 14.288 150.025 14.288C154.123 14.288 156.588 17.2611 156.588 20.7733C156.588 24.3112 154.123 27.2843 150.025 27.2843C145.948 27.2843 143.489 24.3112 143.489 20.7733ZM153.204 20.7733C153.204 18.8477 152.049 17.184 150.025 17.184C147.997 17.184 146.873 18.8529 146.873 20.7733C146.873 22.7194 148.002 24.3883 150.025 24.3883C152.054 24.3883 153.204 22.7246 153.204 20.7733Z" fill="white"/>
<path d="M158.2 20.7733C158.2 17.2611 160.66 14.288 164.737 14.288C168.84 14.288 171.299 17.2611 171.299 20.7733C171.299 24.3112 168.84 27.2843 164.737 27.2843C160.66 27.2843 158.2 24.3112 158.2 20.7733ZM167.915 20.7733C167.915 18.8477 166.76 17.184 164.737 17.184C162.714 17.184 161.584 18.8529 161.584 20.7733C161.584 22.7194 162.714 24.3883 164.737 24.3883C166.76 24.3883 167.915 22.7246 167.915 20.7733Z" fill="white"/>
<path d="M181.723 26.9762L178.442 22.2059L176.953 23.7926V26.9711H173.697V9.87195H176.953V20.1006L181.646 14.5909H185.646L180.753 20.2033L185.8 26.9711H181.723V26.9762Z" fill="white"/>
<path d="M187.079 11.3149C187.079 10.2365 187.977 9.39441 189.03 9.39441C190.108 9.39441 190.976 10.2417 190.976 11.3149C190.976 12.3932 190.103 13.261 189.03 13.261C187.977 13.2661 187.079 12.3932 187.079 11.3149ZM187.412 26.9762V14.596H190.668V26.9762H187.412Z" fill="white"/>
<path d="M193.102 20.7733C193.102 17.184 195.741 14.288 199.51 14.288C203.202 14.288 205.713 17.0557 205.713 21.1071V21.826H196.512C196.717 23.387 197.975 24.6963 200.075 24.6963C201.128 24.6963 202.586 24.2342 203.382 23.464L204.815 25.5641C203.587 26.6938 201.636 27.2792 199.716 27.2792C195.947 27.2843 193.102 24.7477 193.102 20.7733ZM199.51 16.8811C197.487 16.8811 196.614 18.3959 196.46 19.6231H202.56C202.483 18.4421 201.662 16.8811 199.51 16.8811Z" fill="white"/>
<path d="M220.193 26.9761L217.194 15.2378L214.221 26.9761H210.35L205.456 9.87695H209.533L212.532 22.2315L215.787 9.87695H218.632L221.862 22.2315L224.835 9.87695H228.938L224.065 26.9761H220.193Z" fill="white"/>
<path d="M230.237 11.3149C230.237 10.2365 231.136 9.39441 232.189 9.39441C233.262 9.39441 234.135 10.2417 234.135 11.3149C234.135 12.3932 233.262 13.261 232.189 13.261C231.131 13.2661 230.237 12.3932 230.237 11.3149ZM230.571 26.9762V14.596H233.827V26.9762H230.571Z" fill="white"/>
<path d="M237.77 26.9762V17.4407H235.716V14.596H237.77V13.9285C237.77 11.2378 239.51 9.62034 241.95 9.62034C242.874 9.62034 243.716 9.82574 244.306 10.1338L243.639 12.4907C243.382 12.311 243.023 12.1826 242.586 12.1826C241.662 12.1826 241.046 12.7988 241.046 13.9285V14.596H243.557V17.4407H241.046V26.9762H237.77ZM245.102 11.3149C245.102 10.2365 246.001 9.39441 247.054 9.39441C248.127 9.39441 249 10.2417 249 11.3149C249 12.3932 248.127 13.261 247.054 13.261C245.996 13.2661 245.102 12.3932 245.102 11.3149ZM245.431 26.9762V14.596H248.687V26.9762H245.431Z" fill="white"/>
</svg>
