<svg width="44" height="33" viewBox="0 0 44 33" fill="none" xmlns="http://www.w3.org/2000/svg">
<path d="M37.9875 15.2687C37.51 15.2687 37.0992 14.9144 37.0376 14.4317C35.682 3.92578 33.3456 2.14398 33.3199 2.12858C32.103 1.3224 29.6074 3.18123 28.5907 4.19793L28.1594 4.62413L27.5946 4.43414C22.4391 2.66261 16.2414 4.42387 16.1797 4.44441L15.6354 4.60359L15.2349 4.20307C14.2131 3.18123 11.7175 1.33267 10.5057 2.11831L10.4441 2.15939C10.4544 2.15939 8.1334 3.96173 6.78806 14.4369C6.72131 14.9606 6.24376 15.3355 5.71487 15.2636C5.19112 15.1968 4.82141 14.7141 4.88816 14.1904C6.32079 3.04772 8.87282 0.870536 9.47873 0.50596C11.8819 -1.04991 15.0347 1.41997 16.1849 2.46235C17.8383 2.05669 22.9526 1.03485 27.6613 2.43667C28.8321 1.38402 31.9541 -1.04477 34.3366 0.500826C34.9426 0.870536 37.5049 3.04772 38.9375 14.1853C39.0094 14.7141 38.6345 15.1917 38.1108 15.2584C38.0697 15.2687 38.0286 15.2687 37.9875 15.2687Z" fill="#2B3C67"/>
<path d="M10.7163 4.54187C10.7163 4.54187 8.9191 7.16065 9.76122 10.031C9.76122 10.031 12.0411 7.38145 15.0707 7.82305C15.0707 7.82305 14.398 5.61506 10.7163 4.54187Z" fill="#2B3C67"/>
<path d="M32.7504 4.54187C32.7504 4.54187 34.5425 7.16065 33.7003 10.031C33.7003 10.031 31.4205 7.38145 28.3857 7.82305C28.3857 7.82305 29.0584 5.61506 32.7504 4.54187Z" fill="#2B3C67"/>
<path d="M31.5639 17.3021C31.4818 17.3021 24.2416 17.3791 21.9361 23.197C19.6254 17.3843 12.3903 17.3021 12.3082 17.3021H1.8125V18.5807H12.3082C12.6368 18.5807 20.3956 18.6629 21.2788 25.7695H22.5933C23.4714 18.6834 31.2353 18.5807 31.5588 18.5807H42.0083V17.3021H31.5639Z" fill="#2B3C67"/>
<path d="M31.8054 24.1469C28.3393 24.1469 25.4998 26.8581 25.2738 30.2676H18.5523C18.3264 26.8581 15.4868 24.1469 12.0156 24.1469H0V27.3407H12.0156C13.8693 27.3407 15.3738 28.8504 15.3738 30.6989V32.9018H28.442V30.6989C28.442 28.8453 29.9517 27.3407 31.8002 27.3407H43.821V24.1469H31.8054Z" fill="#2B3C67"/>
</svg>
