<svg width="34" height="34" viewBox="0 0 34 34" fill="none" xmlns="http://www.w3.org/2000/svg">
<path fill-rule="evenodd" clip-rule="evenodd" d="M17 33C25.8366 33 33 25.8366 33 17C33 8.16344 25.8366 1 17 1C8.16344 1 1 8.16344 1 17C1 25.8366 8.16344 33 17 33Z" fill="white" stroke="#D2E0ED"/>
<path fill-rule="evenodd" clip-rule="evenodd" d="M15.0917 21.4167C15.4167 21.7417 15.9417 21.7417 16.2667 21.4167L20.0917 17.5917C20.4167 17.2667 20.4167 16.7417 20.0917 16.4167L16.2667 12.5917C15.9417 12.2667 15.4167 12.2667 15.0917 12.5917C14.7667 12.9167 14.7667 13.4417 15.0917 13.7667L18.325 17.0083L15.0917 20.2417C14.7667 20.5667 14.775 21.1 15.0917 21.4167Z" fill="#D1DFED"/>
</svg>
