<svg width="24" height="24" viewBox="0 0 24 24" fill="none" xmlns="http://www.w3.org/2000/svg">
<path d="M9.70453 7.27269C9.70453 7.69854 9.70453 9.59928 9.70453 9.59928H8V12.4442H9.70453V20.8984H13.206V12.4445H15.5556C15.5556 12.4445 15.7757 11.0803 15.8824 9.58879C15.5765 9.58879 13.2192 9.58879 13.2192 9.58879C13.2192 9.58879 13.2192 7.93368 13.2192 7.64357C13.2192 7.35284 13.601 6.96176 13.9783 6.96176C14.355 6.96176 15.1498 6.96176 15.8861 6.96176C15.8861 6.57442 15.8861 5.23605 15.8861 4C14.9032 4 13.7851 4 13.2922 4C9.61798 3.9998 9.70453 6.84759 9.70453 7.27269Z" fill="#2B3C67"/>
</svg>
